#!OML:ASF H:\Terrain\Patient Classification 1\Takeo\Monday\TakeoMonday.ASF
:FULLY-SPECIFIED
:DEGREES
204
root 9.91661 16.8676 8.5102 -4.27407 4.28033 -0.894441
lowerback 7.12446 -3.28779 0.848059
upperback 1.3779 -4.24674 2.24346
thorax -2.45267 -2.11656 2.22231
lowerneck -16.9138 2.78962 -1.17707
upperneck 2.63033 4.36082 -5.67646
head 3.59145 1.8206 -1.22267
rclavicle 6.7065e-014 -5.00937e-014
rhumerus -52.9491 -19.6295 -66.1847
rradius 8.77366
rwrist 11.1302
rhand -28.4674 19.5949
rfingers 7.12502
rthumb -1.83735 -10.377
lclavicle 6.7065e-014 -5.00937e-014
lhumerus -36.5256 -4.78213 89.6548
lradius 77.8196
lwrist 27.837
lhand -23.0961 10.5552
lfingers 7.12502
lthumb 3.35034 40.5086
rfemur -26.0552 8.3324 24.2935
rtibia 43.7893
rfoot -15.5844 -12.1428
rtoes -4.08299
lfemur 14.8107 -1.25502 -19.364
ltibia 49.9609
lfoot 18.8363 5.64685
ltoes -23.3658
205
root 9.91628 16.9041 8.74862 -4.21477 4.56927 -0.404931
lowerback 7.01276 -3.24688 0.566746
upperback 1.4393 -4.22163 2.06854
thorax -2.32092 -2.1036 2.18625
lowerneck -16.3377 2.79403 -1.71184
upperneck 1.50598 4.34945 -4.89555
head 3.47957 1.89316 -0.979497
rclavicle -5.27525e-014 3.4191e-014
rhumerus -52.4889 -20.801 -65.5417
rradius 9.58088
rwrist 11.1665
rhand -28.3918 18.9993
rfingers 7.12502
rthumb -1.76431 -10.9732
lclavicle -5.27525e-014 3.4191e-014
lhumerus -37.1004 -4.63204 89.9431
lradius 76.6146
lwrist 27.5983
lhand -23.2251 10.2931
lfingers 7.12502
lthumb 3.22575 40.2485
rfemur -25.2219 7.42055 23.968
rtibia 43.9559
rfoot -16.7314 -11.4035
rtoes -0.390765
lfemur 12.865 -1.51369 -20.0844
ltibia 53.2026
lfoot 19.5693 9.26809
ltoes -21.7073
206
root 9.91503 16.9401 8.97865 -4.2536 4.80662 -0.683286
lowerback 7.02113 -3.21094 1.09498
upperback 1.54162 -4.13663 2.04881
thorax -2.26151 -2.06415 1.86165
lowerneck -16.0828 2.76384 -2.00147
upperneck 0.922359 4.30419 -4.56099
head 3.20404 1.90327 -0.82446
rclavicle 3.01904e-014 -1.35174e-014
rhumerus -52.1388 -22.0283 -64.8702
rradius 10.485
rwrist 11.5136
rhand -27.7788 18.2846
rfingers 7.12502
rthumb -1.17232 -11.692
lclavicle 3.01904e-014 -1.35174e-014
lhumerus -37.3992 -4.76031 90.1344
lradius 75.0946
lwrist 27.4667
lhand -23.0836 10.9275
lfingers 7.12502
lthumb 3.36234 40.8807
rfemur -24.1838 6.66044 24.4688
rtibia 43.8117
rfoot -17.603 -10.8043
rtoes 1.60584
lfemur 10.8368 -1.46548 -19.7027
ltibia 56.2995
lfoot 19.8642 11.5948
ltoes -18.0761
207
root 9.91215 16.9698 9.19661 -4.49844 4.93828 -1.32111
lowerback 7.36035 -3.20593 1.91993
upperback 1.66906 -4.05922 2.06346
thorax -2.37605 -2.02861 1.42868
lowerneck -15.9946 2.72607 -1.70168
upperneck 0.597071 4.18597 -4.68485
head 3.08306 1.85103 -0.929971
rclavicle -3.68497e-014 2.22639e-014
rhumerus -50.7797 -21.345 -66.9826
rradius 11.1943
rwrist 9.3044
rhand -27.7136 18.166
rfingers 7.12502
rthumb -1.10931 -11.8109
lclavicle -3.68497e-014 2.22639e-014
lhumerus -37.6632 -4.68603 90.0849
lradius 73.4723
lwrist 27.1785
lhand -22.4999 11.4093
lfingers 7.12502
lthumb 3.92601 41.3529
rfemur -22.8316 6.12255 25.3838
rtibia 43.3942
rfoot -17.8662 -10.5536
rtoes 0.89308
lfemur 8.86034 -1.37809 -18.9067
ltibia 59.2747
lfoot 20.863 12.8803
ltoes -11.1994
208
root 9.90913 17.0022 9.41405 -4.78522 4.96233 -2.02675
lowerback 7.74153 -3.23875 2.6782
upperback 1.68779 -4.02213 2.244
thorax -2.60731 -2.01365 1.21403
lowerneck -15.7468 2.61842 -1.26123
upperneck 0.581348 3.99151 -5.33833
head 3.05969 1.73279 -1.24327
rclavicle 2.29845e-014 4.77083e-015
rhumerus -49.4104 -20.2011 -68.9748
rradius 12.0059
rwrist 6.91801
rhand -28.2297 18.1891
rfingers 7.12502
rthumb -1.60774 -11.7846
lclavicle 2.29845e-014 4.77083e-015
lhumerus -38.1391 -4.19664 90.1892
lradius 71.714
lwrist 26.988
lhand -21.6191 11.9487
lfingers 7.12502
lthumb 4.77661 41.8749
rfemur -21.3461 5.72015 26.3484
rtibia 42.8262
rfoot -18.0923 -10.2162
rtoes 0.700923
lfemur 6.97803 -1.26704 -18.0753
ltibia 62.0216
lfoot 18.8683 14.3102
ltoes -11.3657
209
root 9.90174 17.0415 9.63393 -4.75424 4.88165 -2.54969
lowerback 7.75424 -3.16369 3.18016
upperback 1.58701 -3.8696 2.49202
thorax -2.73428 -1.94127 1.18071
lowerneck -15.3673 2.42583 -1.09502
upperneck 0.638882 3.73478 -5.96702
head 3.02635 1.58431 -1.50586
rclavicle -3.19049e-014 2.54444e-014
rhumerus -48.1062 -18.8405 -70.7915
rradius 12.9903
rwrist 4.14186
rhand -28.7749 18.5589
rfingers 7.12502
rthumb -2.13436 -11.4102
lclavicle -3.19049e-014 2.54444e-014
lhumerus -38.6406 -3.78024 90.549
lradius 69.8116
lwrist 26.8171
lhand -20.7777 13.5727
lfingers 7.12502
lthumb 5.58897 43.479
rfemur -20.2206 5.51415 27.0752
rtibia 42.2451
rfoot -18.6569 -9.81974
rtoes 0.651538
lfemur 4.86744 -1.00508 -17.4257
ltibia 64.4722
lfoot 16.6544 15.5158
ltoes -9.55273
210
root 9.88676 17.086 9.85607 -4.47814 4.72994 -2.64583
lowerback 7.57014 -2.93948 3.25533
upperback 1.5047 -3.57217 2.49373
thorax -2.72013 -1.79436 1.10255
lowerneck -15.0924 2.28976 -1.22846
upperneck 0.445243 3.54415 -5.6977
head 2.89063 1.51069 -1.40705
rclavicle 1.65488e-014 2.14687e-014
rhumerus -46.8956 -17.5728 -72.8257
rradius 14.2509
rwrist 1.21752
rhand -28.9841 19.3078
rfingers 7.12502
rthumb -2.33638 -10.6591
lclavicle 1.65488e-014 2.14687e-014
lhumerus -38.9388 -3.75398 90.6555
lradius 67.7901
lwrist 26.6645
lhand -20.2097 14.6839
lfingers 7.12502
lthumb 6.13741 44.575
rfemur -19.4349 5.5288 27.3595
rtibia 41.638
rfoot -19.0336 -9.82621
rtoes -0.530203
lfemur 2.55229 -0.707343 -17.2866
ltibia 66.6111
lfoot 14.3779 16.1726
ltoes -7.40634
211
root 9.8714 17.1278 10.0761 -4.26407 4.57341 -2.63262
lowerback 7.48651 -2.72564 3.19742
upperback 1.44295 -3.29663 2.42981
thorax -2.73622 -1.65759 1.03858
lowerneck -14.9291 2.1614 -1.49582
upperneck 0.34968 3.38236 -5.1617
head 2.80168 1.4567 -1.19369
rclavicle -2.41772e-014 1.19271e-014
rhumerus -45.7532 -16.1156 -74.8915
rradius 15.6144
rwrist -1.45251
rhand -29.2824 19.8248
rfingers 7.12502
rthumb -2.62441 -10.1389
lclavicle -2.41772e-014 1.19271e-014
lhumerus -39.1591 -3.6242 90.5866
lradius 65.546
lwrist 26.5002
lhand -19.8622 14.3913
lfingers 7.12502
lthumb 6.47282 44.2724
rfemur -18.5178 5.60583 27.5426
rtibia 41.0326
rfoot -19.2243 -9.87972
rtoes -1.01399
lfemur 0.328429 -0.444751 -17.2955
ltibia 68.4528
lfoot 12.2285 16.193
ltoes -6.8748
212
root 9.86353 17.1594 10.2869 -4.37211 4.2876 -3.05814
lowerback 7.67635 -2.5784 3.60011
upperback 1.45772 -3.05427 2.56059
thorax -2.83849 -1.54017 0.93435
lowerneck -14.8111 2.00753 -1.79076
upperneck 0.465067 3.22089 -4.94914
head 2.80449 1.38282 -1.08339
rclavicle -3.34704e-014 1.11319e-014
rhumerus -44.4457 -14.7227 -76.4519
rradius 16.6065
rwrist -3.38425
rhand -29.4698 20.0504
rfingers 7.12502
rthumb -2.80542 -9.91085
lclavicle -3.34704e-014 1.11319e-014
lhumerus -39.3485 -3.04489 90.6272
lradius 63.2424
lwrist 26.3151
lhand -19.9747 14.5831
lfingers 7.12502
lthumb 6.36425 44.4675
rfemur -17.2501 5.64984 28.223
rtibia 40.4301
rfoot -19.5041 -9.72312
rtoes -0.643469
lfemur -1.48787 -0.0993103 -16.7884
ltibia 70.0263
lfoot 8.05657 16.1611
ltoes -13.8587
213
root 9.86223 17.1926 10.4985 -4.52011 3.96008 -3.09519
lowerback 7.8555 -2.42854 3.69148
upperback 1.59955 -2.84316 2.55132
thorax -2.79349 -1.43444 0.856069
lowerneck -15.0352 1.93469 -1.9951
upperneck 0.676845 3.16671 -4.71803
head 2.90923 1.35591 -0.973335
rclavicle 1.72943e-014 -1.11319e-014
rhumerus -42.8661 -13.427 -77.9664
rradius 17.5072
rwrist -5.00515
rhand -29.5037 20.2014
rfingers 7.12502
rthumb -2.83815 -9.75944
lclavicle 1.72943e-014 -1.11319e-014
lhumerus -39.4393 -2.35063 90.5801
lradius 61.1084
lwrist 26.1968
lhand -19.9111 15.8632
lfingers 7.12502
lthumb 6.4256 45.7457
rfemur -15.9346 5.69276 28.4371
rtibia 39.7645
rfoot -19.7771 -9.43136
rtoes -0.277477
lfemur -3.18861 0.151991 -16.8125
ltibia 71.2642
lfoot 5.18298 16.1599
ltoes -13.5932
